<svg xmlns="http://www.w3.org/2000/svg" width="108.7" height="26.7" viewBox="0 0 108.7 26.7"><g fill="#fff"><path d="M19 26.2l-2.4-2.5c-.8.9-1.8 1.6-3 2.1-1.2.6-2.7.8-4.4.8-1.2 0-2.3-.2-3.4-.5s-2.1-.8-2.9-1.4c-.9-.6-1.5-1.4-2.1-2.4-.5-.8-.8-1.9-.8-3.2 0-.9.1-1.7.4-2.4.3-.7.7-1.4 1.2-2s1.1-1.1 1.7-1.5c.6-.4 1.3-.8 2-1.1-.8-.8-1.4-1.6-1.9-2.5-.5-.9-.7-1.9-.7-3 0-1.2.2-2.1.7-3 .5-.8 1.1-1.5 1.9-2C6 1 6.9.6 7.8.4c1-.3 1.9-.4 2.9-.4s1.9.1 2.8.4c.9.2 1.8.6 2.5 1.1.7.5 1.3 1.2 1.8 2s.7 1.8.7 2.9c0 .8-.1 1.6-.4 2.2-.3.7-.6 1.3-1.1 1.8-.5.5-1 1-1.6 1.5-.6.4-1.3.8-2 1.2l3.2 3.3 2.6-3.9h6.6l-5.5 7.4 6.3 6.3H19zM8.6 15.4c-.7.3-1.3.7-1.9 1.2-.5.5-.8 1.3-.8 2.2 0 .5.1 1 .3 1.4.2.4.5.7.8 1s.7.5 1.1.6.8.2 1.3.2c.8 0 1.5-.2 2.1-.5.6-.3 1.2-.8 1.6-1.4l-4.5-4.7zm4.5-8.7c0-.6-.2-1.2-.6-1.7-.4-.5-1-.7-1.8-.7-.7 0-1.2.2-1.7.7-.5.4-.7 1-.7 1.7 0 .6.2 1.2.5 1.7.3.6.8 1.1 1.4 1.6.8-.3"/></g></svg>